<svg xmlns="http://www.w3.org/2000/svg" width="1601" height="849" viewBox="0 0 1601 849"><defs><linearGradient id="s4dua" x1="800.32" x2="800.1" y1="848.81" y2=".74" gradientUnits="userSpaceOnUse"><stop offset="0" stop-color="#3481f3"/><stop offset="1" stop-color="#091d80"/></linearGradient></defs><g><g><path d="M.103.74H1600.32v785.32s-70.024-54.67-141.721-57.4c-96.653-3.68-127.303 77.445-206.873 73.693-58.042-2.738-120.806-53.301-186.195-54.357-82.092-1.326-168.32 46.572-254.532 38.419-61.819-5.846-110.461-56.565-173.572-59.542-83.612-3.943-149.185 41.582-218.07 73.55-68.258 31.677-139.948 49.79-196.385 48.3C60.9 844.444.103 783.326.103 783.326z"/><path fill="url(#s4dua)" d="M.103.74H1600.32v785.32s-70.024-54.67-141.721-57.4c-96.653-3.68-127.303 77.445-206.873 73.693-58.042-2.738-120.806-53.301-186.195-54.357-82.092-1.326-168.32 46.572-254.532 38.419-61.819-5.846-110.461-56.565-173.572-59.542-83.612-3.943-149.185 41.582-218.07 73.55-68.258 31.677-139.948 49.79-196.385 48.3C60.9 844.444.103 783.326.103 783.326z"/></g></g></svg>