<svg xmlns="http://www.w3.org/2000/svg" width="1601" height="1120" viewBox="0 0 1601 1120"><g><g><path fill="#051047" d="M.103 62.419s65.458 50 169.897 50c66.864 0 115.64-9.427 187-39 83.31-34.525 169.99-73 266-73 90.552 0 116.255 62 169 62 101.099 0 192.586-50 288-50 59.93 0 117.463 50 171 50 81.944 0 154.525-40 212-40 85.293 0 137.321 40 137.321 40v994.38s-70.024-54.67-141.721-57.399c-96.654-3.68-127.303 77.445-206.873 73.693-58.042-2.738-120.806-53.3-186.195-54.357-82.092-1.326-168.32 46.572-254.532 38.42-61.819-5.848-110.461-56.567-173.572-59.542-83.612-3.943-149.185 41.58-218.07 73.55-68.258 31.677-139.948 49.788-196.385 48.3C60.9 1115.184.103 1054.067.103 1054.067z"/></g></g></svg>