<svg height="512" viewBox="0 0 64 64" width="512" xmlns="http://www.w3.org/2000/svg"><g id="outline"><path d="m23 12h2v2h-2z"/><path d="m27 12h2v2h-2z"/><path d="m31 12h2v2h-2z"/><path d="m37 6h2v2h-2z"/><path d="m55.924 61.383a1 1 0 0 0 -.217-1.09l-5.8-5.8-1.885-7.541.972-6.8a1.017 1.017 0 0 0 -.006-.321l-2-10.972a3.164 3.164 0 0 0 -2.988-2.859 2.961 2.961 0 0 0 -.995.183v-19.183a5.006 5.006 0 0 0 -5-5h-20.005a5.006 5.006 0 0 0 -5 5v12.268a3.513 3.513 0 0 0 -2.227.045 3.879 3.879 0 0 0 -2.518 2.834 3.826 3.826 0 0 0 1.022 3.547l2.956 2.956a3.738 3.738 0 0 0 -1.839 4.584 3.8 3.8 0 0 0 -2.094 1.059 3.824 3.824 0 0 0 0 5.414l1.636 1.636a3.781 3.781 0 0 0 -1.638.95 3.832 3.832 0 0 0 0 5.414l4 4a3.824 3.824 0 0 0 .7.542v.751a5.006 5.006 0 0 0 5 5h9.586l3.707 3.707a1 1 0 0 0 .709.293h23a1 1 0 0 0 .924-.617zm-32.924-57.383h10v2h-10zm-8 17v-14a3 3 0 0 1 3-3h3v3a1 1 0 0 0 1 1h12a1 1 0 0 0 1-1v-3h3a3 3 0 0 1 3 3v41h-22.315a3.789 3.789 0 0 0 -.97-1.707l-1.642-1.642a3.754 3.754 0 0 0 2.767-3.651 3.8 3.8 0 0 0 -.216-1.209 3.733 3.733 0 0 0 2.654-1.791h4.722a1 1 0 0 0 1-1v-6a1 1 0 0 0 -1-1h-6a1 1 0 0 0 -1 1v.6l-2.29-2.289a3.855 3.855 0 0 0 -1.71-.968zm6 12.66v-1.66h4v4h-3.162a3.81 3.81 0 0 0 -.838-2.337zm-10.309-9.38a1.837 1.837 0 0 1 -.483-1.7 1.887 1.887 0 0 1 1.255-1.387 1.419 1.419 0 0 1 .486-.084 1.833 1.833 0 0 1 1.051.349v5.131zm2.026 6.447a1.912 1.912 0 0 1 1.3-.527 1.825 1.825 0 0 1 1.289.527l3.994 3.993a1.851 1.851 0 0 1 .544 1.3 1.828 1.828 0 0 1 -.123.648 1.73 1.73 0 0 1 -.414.644 1.835 1.835 0 0 1 -2.424.153l-4.162-4.153a1.815 1.815 0 0 1 -.537-1.292 1.845 1.845 0 0 1 .533-1.293zm-3 7.566a1.83 1.83 0 0 1 1.3-3.123 1.82 1.82 0 0 1 1.134.4l4.149 4.137a1.829 1.829 0 0 1 -2.586 2.586zm4 12-4-4a1.829 1.829 0 0 1 2.583-2.586l4 4a1.829 1.829 0 0 1 -2.586 2.586zm4.283 5.707a3 3 0 0 1 -3-3v-.175h.008a3.772 3.772 0 0 0 3.677-2.825h22.315v3a3 3 0 0 1 -3 3zm14.414 4-2-2h7.586a5.006 5.006 0 0 0 5-5v-24.006a1 1 0 0 1 1-.994c.522 0 .925.586 1.016 1.179l1.971 10.841-.977 6.838a1.013 1.013 0 0 0 .02.384l2 8a1 1 0 0 0 .263.465l4.293 4.293z"/><path d="m26 52h4v2h-4z"/><path d="m20 28h6a1 1 0 0 0 1-1v-6a1 1 0 0 0 -1-1h-6a1 1 0 0 0 -1 1v6a1 1 0 0 0 1 1zm1-6h4v4h-4z"/><path d="m29 27a1 1 0 0 0 1 1h6a1 1 0 0 0 1-1v-6a1 1 0 0 0 -1-1h-6a1 1 0 0 0 -1 1zm2-5h4v4h-4z"/><path d="m36 30h-6a1 1 0 0 0 -1 1v6a1 1 0 0 0 1 1h6a1 1 0 0 0 1-1v-6a1 1 0 0 0 -1-1zm-1 6h-4v-4h4z"/><path d="m23 44h2v2h-2z"/><path d="m27 44h2v2h-2z"/><path d="m31 44h2v2h-2z"/></g></svg>