<svg id="Layer_3" enable-background="new 0 0 64 64" height="512" viewBox="0 0 64 64" width="512" xmlns="http://www.w3.org/2000/svg"><path d="m58 1h-9c-2.757 0-5 2.243-5 5v7.586l-4.259 4.259c-1.036-.878-2.225-1.575-3.518-2.063 2.263-1.415 3.777-3.922 3.777-6.782 0-4.411-3.589-8-8-8s-8 3.589-8 8c0 2.86 1.514 5.367 3.777 6.782-4.536 1.714-7.777 6.089-7.777 11.218v7c0 2.757 2.243 5 5 5v3.586l-6.414 6.414h-12.586c-2.757 0-5 2.243-5 5v4c0 2.757 2.243 5 5 5h9c2.757 0 5-2.243 5-5v-7.586l5-5v13.586c0 2.206 1.794 4 4 4 1.2 0 2.266-.542 3-1.382.734.84 1.8 1.382 3 1.382 2.206 0 4-1.794 4-4v-20c2.757 0 5-2.243 5-5v-7c0-2.949-1.074-5.649-2.845-7.741l4.259-4.259h12.586c2.757 0 5-2.243 5-5v-4c0-2.757-2.243-5-5-5zm-40 57c0 1.654-1.346 3-3 3h-9c-1.654 0-3-1.346-3-3v-4c0-1.654 1.346-3 3-3h12zm8-49c0-3.309 2.691-6 6-6s6 2.691 6 6-2.691 6-6 6-6-2.691-6-6zm16 25c0 1.654-1.346 3-3 3v-13h-2v35c0 1.103-.897 2-2 2s-2-.897-2-2v-24h-2v24c0 1.103-.897 2-2 2s-2-.897-2-2v-35h-2v13c-1.654 0-3-1.346-3-3v-7c0-5.514 4.486-10 10-10s10 4.486 10 10zm19-24c0 1.654-1.346 3-3 3h-12v-7c0-1.654 1.346-3 3-3h9c1.654 0 3 1.346 3 3z"/><path d="m48 5h11v2h-11z"/><path d="m57 9h2v2h-2z"/><path d="m48 9h7v2h-7z"/><path d="m5 57h11v2h-11z"/><path d="m5 53h2v2h-2z"/><path d="m9 53h7v2h-7z"/><path d="m61 38h-2v17h-2v-15h-2v15h-2v-9h-2v9h-2v-12h-2v12h-2v-10h-2v10h-2v2h22v-2h-2z"/><path d="m61 59h2v2h-2z"/><path d="m41 59h18v2h-18z"/><path d="m12 23c6.065 0 11-4.935 11-11s-4.935-11-11-11-11 4.935-11 11 4.935 11 11 11zm9-11c0 1.665-.463 3.22-1.254 4.56l-3.24-2.43c.308-.649.494-1.366.494-2.13 0-2.414-1.721-4.434-4-4.899v-4.042c4.493.5 8 4.317 8 8.941zm-9-3c1.654 0 3 1.346 3 3s-1.346 3-3 3-3-1.346-3-3 1.346-3 3-3zm-1-5.941v4.042c-2.279.465-4 2.485-4 4.899 0 2.757 2.243 5 5 5 1.27 0 2.418-.491 3.301-1.274l3.244 2.433c-1.643 1.744-3.966 2.841-6.545 2.841-4.962 0-9-4.038-9-9 0-4.624 3.507-8.441 8-8.941z"/></svg>