<?xml version="1.0" encoding="utf-8"?><svg xmlns="http://www.w3.org/2000/svg" xmlns:xlink="http://www.w3.org/1999/xlink" width="3000" height="2000" preserveAspectRatio="xMidYMid" viewBox="0 0 3000 2000" style="z-index:1;margin-right:-2px;display:block;background-repeat-y:initial;background-repeat-x:initial;background-color:rgb(245, 249, 255);animation-play-state:paused" ><g transform="translate(1500,1000) scale(1,1) translate(-1500,-1000)" style="transform:matrix(1, 0, 0, 1, 0, 0);animation-play-state:paused" ><linearGradient id="lg-0.1891366959349603" x1="0" x2="1" y1="0" y2="0" style="animation-play-state:paused" ><stop stop-color="#1d3f72" offset="0" style="animation-play-state:paused" ></stop>

  
<stop stop-color="#5699d2" offset="1" style="animation-play-state:paused" ></stop></linearGradient>
<path d="M 0 0 L 0 1615.78 Q 300 1738.8 600 1709.66 T 1200 1529.13 T 1800 1323.51 T 2400 951.502 T 3000 1059.6 L 3000 0 Z" fill="url(#lg-0.1891366959349603)" opacity="0.4" style="opacity:0.4;animation-play-state:paused" ></path>
<path d="M 0 0 L 0 1802.42 Q 300 1687.21 600 1656.16 T 1200 1329.34 T 1800 1256.03 T 2400 920.84 T 3000 913.608 L 3000 0 Z" fill="url(#lg-0.1891366959349603)" opacity="0.4" style="opacity:0.4;animation-play-state:paused" ></path>
<path d="M 0 0 L 0 1891.13 Q 300 1527.92 600 1491.52 T 1200 1375.08 T 1800 1289.96 T 2400 1017.69 T 3000 776.282 L 3000 0 Z" fill="url(#lg-0.1891366959349603)" opacity="0.4" style="opacity:0.4;animation-play-state:paused" ></path>
<path d="M 0 0 L 0 1935.35 Q 300 1610.21 600 1584.02 T 1200 1499.37 T 1800 1302.36 T 2400 903.616 T 3000 895.154 L 3000 0 Z" fill="url(#lg-0.1891366959349603)" opacity="0.4" style="opacity:0.4;animation-play-state:paused" ></path>
<path d="M 0 0 L 0 1817.43 Q 300 1726.8 600 1697.62 T 1200 1600.37 T 1800 1333.27 T 2400 1153.86 T 3000 842.304 L 3000 0 Z" fill="url(#lg-0.1891366959349603)" opacity="0.4" style="opacity:0.4;animation-play-state:paused" ></path></g></svg>