<svg id="Layer_1" enable-background="new 0 0 480 480" viewBox="0 0 480 480" xmlns="http://www.w3.org/2000/svg"><path d="m472 135h-464c-4.4 0-8-3.6-8-8v-24c0-22.1 17.9-40 40-40h400c22.1 0 40 17.9 40 40v24c0 4.4-3.6 8-8 8zm0 16h-464c-4.4 0-8 3.6-8 8v36c0 4.4 3.6 8 8 8h464c4.4 0 8-3.6 8-8v-36c0-4.4-3.6-8-8-8zm-464 68h464c4.4 0 8 3.6 8 8v150c0 22.1-17.9 40-40 40h-400c-22.1 0-40-17.9-40-40v-150c0-4.4 3.6-8 8-8zm140 117c0-4.4-3.6-8-8-8h-67c-4.4 0-8 3.6-8 8s3.6 8 8 8h67c4.4 0 8-3.6 8-8zm0-50c0-4.4-3.6-8-8-8h-67c-4.4 0-8 3.6-8 8s3.6 8 8 8h67c4.4 0 8-3.6 8-8z"/></svg>